<svg width="194" height="61" viewBox="0 0 194 61" fill="none" xmlns="http://www.w3.org/2000/svg">
<path d="M55.7454 42.878C55.4403 42.1406 55.1544 41.3655 54.8493 40.7037L53.4385 37.5464L53.3813 37.4897C49.187 28.4147 44.7067 19.1884 39.9595 10.1134L39.7688 9.7353C39.2922 8.84671 38.8156 7.86358 38.3199 6.95608C37.7098 5.87843 37.1188 4.72515 36.1464 3.62858C35.1987 2.48122 34.0059 1.55681 32.6541 0.922068C31.3024 0.287322 29.8254 -0.0419312 28.3297 -0.0419312C26.8341 -0.0419312 25.3571 0.287322 24.0054 0.922068C22.6536 1.55681 21.4608 2.48122 20.513 3.62858C19.617 4.72515 18.9497 5.87843 18.3396 6.95608C17.863 7.93921 17.3864 8.90343 16.8907 9.79202L16.7 10.1701C12.0291 19.2451 7.47249 28.4714 3.27816 37.5464L3.16377 37.6598C2.74434 38.643 2.24864 39.6639 1.77201 40.7605C1.46697 41.4222 1.16193 42.1406 0.856889 42.9347C0.0333377 45.014 -0.229648 47.2702 0.0938497 49.4809C0.417348 51.6917 1.31616 53.7807 2.70171 55.5421C4.08727 57.3035 5.91173 58.6765 7.9953 59.5258C10.0789 60.375 12.3496 60.6712 14.5838 60.3851C16.7257 60.1055 18.7882 59.398 20.6465 58.3055C23.125 56.9253 25.5081 54.9212 28.1772 52.0286C30.8463 54.9212 33.2867 56.9253 35.7079 58.3244C38.0364 59.6797 40.6732 60.4277 43.3721 60.4986C46.4976 60.5115 49.5222 59.4026 51.8875 57.3766C54.2529 55.3507 55.7992 52.5445 56.2411 49.4762C56.7517 47.2713 56.5789 44.9649 55.7454 42.8591V42.878ZM28.3679 46.0164C25.0887 41.857 22.9534 38.038 22.2289 34.7672C21.9287 33.5552 21.864 32.2976 22.0382 31.0616C22.1717 30.0973 22.5339 29.2466 23.0296 28.5281C24.1735 26.8833 26.1754 25.8623 28.3679 25.8623C29.4091 25.8308 30.4419 26.0561 31.3736 26.5181C32.3053 26.9801 33.1068 27.6643 33.7061 28.5092C34.2018 29.2655 34.564 30.0973 34.6784 31.0616C34.8691 32.1581 34.7928 33.4248 34.4878 34.7672C33.7633 37.9812 31.628 41.8381 28.3679 46.0164ZM52.6568 48.8145C52.4402 50.3723 51.8158 51.8466 50.8457 53.0905C49.8756 54.3345 48.5938 55.3046 47.1279 55.9044C45.679 56.5094 44.0775 56.6795 42.5142 56.5094C40.989 56.3203 39.4638 55.8287 37.9004 54.9212C35.3047 53.3303 32.9707 51.3536 30.9798 49.0603C34.9835 44.1447 37.4047 39.6639 38.3199 35.6747C38.7584 33.7841 38.8156 32.0825 38.6249 30.5133C38.3868 29.0259 37.8275 27.6071 36.9853 26.3539C36.0237 24.995 34.7401 23.8912 33.2474 23.1396C31.7548 22.388 30.0988 22.0115 28.4251 22.0433C24.898 22.0433 21.7523 23.6692 19.8458 26.335C18.9875 27.585 18.4328 29.0151 18.2252 30.5133C17.9774 32.1014 18.0346 33.8597 18.5303 35.6747C19.4454 39.6639 21.9239 44.2014 25.8703 49.0981C23.9133 51.4352 21.5737 53.4293 18.9497 54.9969C17.3673 55.9044 15.8611 56.377 14.3359 56.5661C11.964 56.8674 9.56803 56.2281 7.66878 54.7872C5.76954 53.3463 4.52054 51.2203 4.19329 48.8712C4.00263 47.3587 4.13609 45.8462 4.74617 44.1447C4.93683 43.5397 5.2228 42.9347 5.52784 42.2162C5.94728 41.2331 6.44297 40.2122 6.9196 39.1912L6.99586 39.0589C11.1139 30.0406 15.6133 20.8333 20.2843 11.815L20.4749 11.4369C20.9515 10.5294 21.4282 9.56515 21.9239 8.65765C22.4195 7.69343 22.9534 6.76702 23.6397 6.01077C24.2338 5.3075 24.9761 4.74192 25.8144 4.35386C26.6528 3.9658 27.5666 3.76469 28.4918 3.76469C29.4169 3.76469 30.3308 3.9658 31.1691 4.35386C32.0074 4.74192 32.7498 5.3075 33.3439 6.01077C34.0111 6.76702 34.564 7.69343 35.0597 8.65765C35.5364 9.56515 36.013 10.5483 36.5087 11.4369L36.6993 11.815C41.3512 20.8333 45.8506 30.0406 50.0449 39.0589L50.1021 39.1156C50.5978 40.0987 51.0172 41.1953 51.4939 42.1406C51.7989 42.878 52.1039 43.4641 52.2946 44.088C52.6568 45.7895 52.8475 47.302 52.6568 48.8145ZM79.1955 45.6005C77.7589 45.6213 76.3359 45.3211 75.0323 44.7222C73.7286 44.1232 72.5776 43.2409 71.6648 42.1406C69.6135 39.7962 68.5248 36.7733 68.6143 33.6706C68.583 30.5004 69.7068 27.4256 71.7792 25.0116C72.7377 23.8973 73.931 23.0049 75.2749 22.3973C76.6189 21.7898 78.0808 21.4818 79.5577 21.495C80.9474 21.4573 82.324 21.7706 83.558 22.4056C84.792 23.0407 85.8429 23.9764 86.6118 25.125L86.8025 22.1567H92.3695V44.9955H86.7834L86.5928 41.668C85.8 42.8943 84.7042 43.8994 83.4095 44.5876C82.1149 45.2759 80.6643 45.6246 79.1955 45.6005ZM80.6444 40.1555C81.7502 40.1555 82.7225 39.853 83.6377 39.3047C84.4765 38.6997 85.1629 37.9056 85.6967 36.9414C86.1733 35.9772 86.4212 34.8239 86.4212 33.5383C86.4955 32.4217 86.2763 31.305 85.7851 30.2976C85.2938 29.2902 84.5473 28.4264 83.6186 27.7908C82.7262 27.2394 81.6959 26.9471 80.6444 26.9471C79.593 26.9471 78.5627 27.2394 77.6703 27.7908C76.8314 28.3958 76.1451 29.1898 75.6112 30.1541C75.1071 31.2174 74.8591 32.3825 74.8868 33.5572C74.8124 34.6738 75.0316 35.7904 75.5229 36.7979C76.0141 37.8053 76.7606 38.6691 77.6893 39.3047C78.5854 39.853 79.5577 40.1555 80.6444 40.1555ZM101.902 15.9933C101.902 16.655 101.788 17.26 101.483 17.7516C101.178 18.2242 100.758 18.6591 100.205 18.9616C99.6524 19.2641 99.0613 19.3775 98.4513 19.3775C97.8412 19.3775 97.2311 19.2641 96.6782 18.9616C96.1553 18.6729 95.7156 18.2563 95.4008 17.7516C95.1056 17.213 94.9608 16.606 94.9814 15.9933C94.9814 15.3126 95.1149 14.7076 95.4008 14.235C95.7059 13.6678 96.1444 13.3275 96.6782 13.025C97.2311 12.7225 97.8221 12.5901 98.4513 12.5901C99.0581 12.5763 99.6582 12.7188 100.193 13.0038C100.728 13.2888 101.179 13.7065 101.502 14.2161C101.779 14.7673 101.917 15.3774 101.902 15.9933ZM95.4199 44.9198V22.1189H101.483V44.9576H95.4008L95.4199 44.9198ZM117.688 28.0933V28.1689C117.402 28.0366 117.021 27.9798 116.735 27.9231C116.353 27.8475 116.048 27.8475 115.686 27.8475C113.989 27.8475 112.712 28.3391 111.873 29.36C110.958 30.3998 110.539 31.8556 110.539 33.7273V44.9387H104.457V22.1H110.043L110.234 25.5598C110.844 24.3498 111.568 23.4423 112.598 22.7617C113.622 22.1004 114.827 21.7701 116.048 21.8164C116.487 21.8164 116.906 21.8542 117.269 21.9298C117.459 21.9866 117.574 21.9866 117.688 22.0433V28.0933ZM120.128 44.9198V12.7414H126.191V25.0305C127.049 23.9339 128.021 23.0831 129.241 22.4214C131.173 21.4822 133.368 21.2158 135.471 21.6651C137.574 22.1145 139.463 23.2534 140.833 24.8981C142.889 27.2474 143.978 30.2779 143.883 33.387C143.915 36.5572 142.791 39.632 140.719 42.0461C139.76 43.1604 138.567 44.0527 137.223 44.6603C135.879 45.2679 134.417 45.5759 132.94 45.5626C131.55 45.6004 130.174 45.287 128.94 44.652C127.706 44.017 126.655 43.0812 125.886 41.9326L125.695 44.9009L120.128 44.9576V44.9198ZM131.853 40.1555C132.94 40.1555 133.912 39.853 134.828 39.3047C135.666 38.6997 136.353 37.9056 136.887 36.9414C137.382 35.9772 137.611 34.8239 137.611 33.5383C137.611 32.2716 137.382 31.1183 136.887 30.1541C136.386 29.2243 135.682 28.417 134.828 27.7908C133.935 27.2394 132.905 26.9471 131.853 26.9471C130.802 26.9471 129.772 27.2394 128.879 27.7908C128.021 28.3958 127.354 29.1898 126.801 30.1541C126.297 31.2174 126.049 32.3825 126.077 33.5572C126.002 34.6738 126.221 35.7904 126.713 36.7979C127.204 37.8053 127.95 38.6691 128.879 39.3047C129.775 39.853 130.748 40.1555 131.853 40.1555ZM146.171 44.9387V22.1H151.757L151.948 25.0683C152.65 23.9305 153.646 22.9993 154.832 22.3711C156.019 21.7429 157.353 21.4404 158.697 21.495C160.234 21.4687 161.744 21.8922 163.04 22.7128C164.335 23.5333 165.358 24.7143 165.98 26.1081C166.647 27.545 167.009 29.3222 167.009 31.3073V44.9955H160.928V32.1014C160.928 30.5133 160.565 29.2655 159.841 28.3391C159.116 27.4316 158.125 26.94 156.867 26.94C155.952 26.94 155.151 27.1291 154.446 27.545C153.778 27.9798 153.225 28.5281 152.806 29.3033C152.382 30.0868 152.172 30.9667 152.196 31.8556V44.9387H146.171ZM170.041 44.9387V12.7225H176.123V25.0116C176.946 23.9089 178.018 23.0118 179.252 22.3915C180.487 21.7713 181.85 21.4449 183.234 21.4383C184.671 21.4174 186.093 21.7176 187.397 22.3166C188.701 22.9155 189.852 23.7978 190.765 24.8981C192.806 27.2473 193.887 30.2685 193.796 33.3681C193.829 36.5386 192.705 39.614 190.631 42.0272C189.673 43.1415 188.479 44.0338 187.135 44.6414C185.791 45.249 184.33 45.557 182.853 45.5437C181.463 45.5815 180.086 45.2681 178.852 44.6331C177.618 43.9981 176.567 43.0623 175.798 41.9137L175.627 44.882L170.041 44.9387ZM181.823 40.1555C182.929 40.1555 183.901 39.853 184.797 39.3047C185.655 38.6997 186.322 37.9056 186.875 36.9414C187.352 35.9772 187.6 34.8239 187.6 33.5383C187.674 32.4217 187.455 31.305 186.964 30.2976C186.472 29.2902 185.726 28.4264 184.797 27.7908C183.905 27.2394 182.874 26.9471 181.823 26.9471C180.772 26.9471 179.741 27.2394 178.849 27.7908C178.01 28.3958 177.324 29.1898 176.79 30.1541C176.258 31.2079 176.008 32.3799 176.065 33.5572C175.991 34.6738 176.21 35.7904 176.701 36.7979C177.193 37.8053 177.939 38.6691 178.868 39.3047C179.764 39.853 180.679 40.1555 181.823 40.1555Z" fill="#E3E4E6" fill-opacity="0.55"/>
</svg>
