<svg width="48" height="48" viewBox="0 0 48 48" fill="none" xmlns="http://www.w3.org/2000/svg">
<path d="M16.441 13.0001C17.5007 13.0001 18.4543 13.0919 19.3287 13.279C20.1977 13.4643 20.939 13.7702 21.5652 14.193C22.1823 14.6158 22.6645 15.1772 23.0117 15.8825C23.3482 16.5788 23.5155 17.4496 23.5155 18.4788C23.5155 19.5943 23.2636 20.5263 22.7581 21.2694C22.2489 22.0142 21.4986 22.6242 20.4982 23.0956C21.8602 23.4896 22.8696 24.1787 23.5389 25.1575C24.2118 26.1453 24.5411 27.3274 24.5411 28.7128C24.5411 29.8373 24.327 30.8035 23.897 31.615C23.4826 32.4143 22.8814 33.1019 22.1445 33.6193C21.3812 34.1508 20.5286 34.5409 19.6274 34.7708C18.6825 35.0189 17.7094 35.1434 16.7324 35.1415H6V13.0001H16.441ZM15.8094 21.9459C16.6731 21.9459 17.3891 21.7408 17.9541 21.3251C18.5155 20.9149 18.7872 20.2384 18.7872 19.3118C18.7872 18.7972 18.6954 18.3726 18.5155 18.0397C18.3402 17.7195 18.0807 17.4532 17.7652 17.2697C17.4349 17.0738 17.0704 16.9425 16.691 16.8828C16.2776 16.8057 15.8576 16.769 15.437 16.7731H10.8759V21.9459H15.8094ZM16.0811 31.3721C16.5615 31.3721 17.0185 31.3307 17.4485 31.2335C17.8821 31.14 18.2672 30.9888 18.5946 30.7639C18.9221 30.548 19.192 30.2547 19.3863 29.8805C19.5824 29.5099 19.6778 29.0259 19.6778 28.4447C19.6778 27.304 19.3557 26.4925 18.7188 26.0013C18.0801 25.5156 17.2236 25.2745 16.1747 25.2745H10.8759V31.3739H16.0811V31.3721ZM31.4915 31.2983C32.1519 31.9424 33.1037 32.2663 34.3415 32.2663C35.2285 32.2663 35.995 32.0414 36.6409 31.5952C37.2779 31.1472 37.6665 30.6686 37.8158 30.1738H41.6932C41.0707 32.1025 40.1261 33.4808 38.8342 34.3102C37.5586 35.1433 36.0058 35.5571 34.1922 35.5571C32.9291 35.5571 31.792 35.3538 30.7736 34.9507C29.7962 34.5701 28.9128 33.982 28.1845 33.2271C27.4683 32.4545 26.9145 31.5459 26.5562 30.5552C26.1624 29.4597 25.9674 28.3026 25.9805 27.1385C25.9805 25.9402 26.1802 24.8193 26.5724 23.7847C26.9448 22.7846 27.5165 21.8707 28.2529 21.0984C28.9816 20.3428 29.8452 19.7472 30.851 19.31C31.9086 18.8652 33.0467 18.6435 34.194 18.6587C35.5506 18.6587 36.7363 18.9214 37.7547 19.4503C38.7422 19.9553 39.5985 20.6834 40.2556 21.577C40.9087 22.4641 41.3747 23.4806 41.6644 24.6195C41.9541 25.7567 42.0548 26.9441 41.9721 28.1874H30.4012C30.403 29.4541 30.8294 30.6542 31.4915 31.2983ZM36.551 22.8761C36.0274 22.2967 35.1422 21.9837 34.059 21.9837C33.3555 21.9837 32.7744 22.1006 32.3066 22.3417C31.8789 22.5578 31.4994 22.8583 31.1911 23.2251C30.9203 23.5582 30.7196 23.9425 30.6009 24.3551C30.4971 24.699 30.4302 25.0531 30.4012 25.4112H37.5657C37.4614 24.2885 37.0764 23.459 36.551 22.8761ZM29.5016 14.4863H38.478V16.6723H29.5016V14.4863Z" fill="#E3E4E6" fill-opacity="0.55"/>
</svg>
