<svg width="48" height="48" viewBox="0 0 48 48" fill="none" xmlns="http://www.w3.org/2000/svg">
<path d="M38 24C38.0024 25.844 37.6393 27.6702 36.9317 29.3731C36.2242 31.0759 35.1862 32.6217 33.8777 33.9211C32.5799 35.2165 31.0396 36.2436 29.3447 36.9434C27.6499 37.6433 25.8337 38.0023 24 38C16.2678 38 10 31.7322 10 24C9.99512 20.4102 11.374 16.9567 13.85 14.3575C15.1564 12.9789 16.7305 11.8814 18.4757 11.1321C20.2209 10.3829 22.1007 9.99765 24 9.99998C25.8337 9.99761 27.6499 10.3566 29.3447 11.0565C31.0396 11.7564 32.5799 12.7834 33.8777 14.0789M38 24C38.0024 22.156 37.6393 20.3297 36.9317 18.6269C36.2242 16.924 35.1862 15.3782 33.8777 14.0789M38 24C35.9574 24 30.3224 23.2298 25.2789 25.4439C19.8 27.8498 15.8331 31.5815 14.1041 33.9027M38 24C38 25.7241 37.6884 27.3746 37.1179 28.8998M33.8777 14.0789C32.6449 12.8505 31.1943 11.8622 29.5999 11.1647M18.75 11.018C20.941 13.0403 25.722 18.1895 27.5 23.3002C29.278 28.4116 29.936 34.6961 30.342 36.4846M10.1079 22.25C12.7525 22.4096 19.7532 22.5531 24.2332 20.64C28.7132 18.727 32.5681 15.2081 33.8904 14.0916M11.05 29.329C12.2836 32.3152 14.5085 34.785 17.35 36.3227" stroke="#E3E4E6" stroke-opacity="0.55" stroke-width="2.8" stroke-linecap="round" stroke-linejoin="round"/>
</svg>
