<svg width="264" height="57" viewBox="0 0 264 57" fill="none" xmlns="http://www.w3.org/2000/svg">
<g clip-path="url(#clip0_77_283)">
<path d="M93.0599 32.5178L91.4887 36.9598H91.3578C91.0959 35.9582 90.6159 34.434 89.8303 32.6049L81.4071 11.4835H73.1584V45.1471H78.6139V24.3741C78.6139 23.0676 78.6139 21.5869 78.5702 19.7579C78.5266 18.8433 78.4393 18.1466 78.3957 17.624H78.5266C78.7885 18.9304 79.094 19.8885 79.3122 20.4982L89.4375 45.06H93.2781L103.316 20.2805C103.534 19.7143 103.753 18.582 103.971 17.624H104.102C103.971 20.1063 103.884 22.3273 103.84 23.6773V45.0165H109.644V11.3964H101.701L93.0599 32.5178ZM115.144 20.8902H120.817V45.0165H115.144V20.8902ZM118.024 10.6996C117.064 10.6996 116.278 11.048 115.624 11.6577C114.969 12.2674 114.62 13.0513 114.62 14.0094C114.62 14.9239 114.969 15.7078 115.624 16.3175C116.278 16.9272 117.064 17.232 118.024 17.232C118.984 17.232 119.813 16.8836 120.424 16.3175C121.079 15.7078 121.428 14.9239 121.428 14.0094C121.428 13.0948 121.079 12.311 120.424 11.6577C119.857 11.048 119.028 10.6996 118.024 10.6996ZM140.937 20.6724C139.889 20.4547 138.798 20.324 137.751 20.324C135.176 20.324 132.819 20.8902 130.855 22.0224C128.891 23.1547 127.32 24.7225 126.316 26.6822C125.269 28.6855 124.745 30.9936 124.745 33.6501C124.745 35.9582 125.269 38.005 126.273 39.8776C127.276 41.7067 128.673 43.1874 130.55 44.189C132.339 45.1907 134.434 45.7132 136.791 45.7132C139.497 45.7132 141.81 45.1471 143.643 44.1019L143.686 44.0584V38.8325L143.468 39.0067C142.639 39.6163 141.679 40.1389 140.719 40.4438C139.715 40.7922 138.798 40.9664 138.013 40.9664C135.743 40.9664 133.954 40.3131 132.688 38.876C131.379 37.4824 130.724 35.5663 130.724 33.1711C130.724 30.6887 131.379 28.729 132.732 27.2919C134.085 25.8548 135.874 25.1144 138.056 25.1144C139.889 25.1144 141.766 25.7241 143.468 26.9435L143.686 27.1177V21.5869L143.643 21.5434C142.901 21.2386 142.072 20.8902 140.937 20.6724ZM159.66 20.4982C158.263 20.4982 156.954 20.9337 155.819 21.8482C154.859 22.6321 154.205 23.7644 153.637 25.1144H153.594V20.8902H147.92V45.0165H153.594V32.692C153.594 30.6016 154.03 28.8597 154.99 27.5968C155.95 26.2903 157.172 25.637 158.656 25.637C159.18 25.637 159.704 25.7677 160.358 25.8548C160.969 26.029 161.406 26.2032 161.711 26.4209L161.929 26.5951V20.9337L161.799 20.8902C161.406 20.6289 160.62 20.4982 159.66 20.4982ZM175.11 20.3676C171.138 20.3676 167.952 21.5434 165.726 23.8515C163.457 26.1596 162.366 29.3387 162.366 33.3453C162.366 37.0905 163.501 40.1389 165.683 42.36C167.865 44.5374 170.833 45.6697 174.542 45.6697C178.427 45.6697 181.525 44.4939 183.751 42.1422C186.021 39.7905 187.112 36.655 187.112 32.7791C187.112 28.9468 186.064 25.8983 183.926 23.6773C181.875 21.4563 178.863 20.3676 175.11 20.3676ZM179.649 38.9196C178.601 40.2696 176.943 40.9228 174.892 40.9228C172.84 40.9228 171.182 40.2696 170.004 38.8325C168.825 37.4824 168.258 35.5227 168.258 33.0404C168.258 30.471 168.869 28.5113 170.004 27.1177C171.182 25.7241 172.797 25.0273 174.848 25.0273C176.856 25.0273 178.427 25.6806 179.561 27.0306C180.696 28.3806 181.307 30.3404 181.307 32.9098C181.22 35.5227 180.74 37.5695 179.649 38.9196ZM199.768 30.9065C197.979 30.1662 196.844 29.6 196.321 29.121C195.884 28.6855 195.666 28.0758 195.666 27.2919C195.666 26.6387 195.928 25.9854 196.582 25.5499C197.237 25.1144 197.979 24.8967 199.07 24.8967C200.03 24.8967 201.034 25.0709 201.994 25.3322C202.954 25.5935 203.827 25.9854 204.526 26.508L204.744 26.6822V21.3692L204.613 21.3257C203.958 21.0644 203.085 20.8031 202.038 20.5853C200.99 20.4111 200.03 20.324 199.245 20.324C196.539 20.324 194.313 20.9773 192.567 22.4144C190.821 23.7644 189.992 25.5935 189.992 27.7274C189.992 28.8597 190.167 29.8613 190.56 30.6887C190.952 31.5162 191.52 32.3001 192.305 32.9533C193.091 33.563 194.226 34.2598 195.797 34.913C197.106 35.4792 198.11 35.9147 198.721 36.2631C199.332 36.6115 199.725 37.0034 200.03 37.3082C200.248 37.6566 200.379 38.0921 200.379 38.6583C200.379 40.2696 199.157 41.0535 196.67 41.0535C195.71 41.0535 194.706 40.8793 193.527 40.4873C192.349 40.0954 191.258 39.5293 190.341 38.876L190.123 38.7018V44.2326L190.254 44.2761C191.083 44.6681 192.087 44.9294 193.309 45.2342C194.531 45.452 195.622 45.6262 196.582 45.6262C199.507 45.6262 201.907 44.9729 203.609 43.5358C205.355 42.1422 206.271 40.3567 206.271 38.0486C206.271 36.4373 205.835 35.0001 204.875 33.9114C203.609 32.8662 202.038 31.7775 199.768 30.9065ZM221.241 20.3676C217.269 20.3676 214.083 21.5434 211.858 23.8515C209.632 26.1596 208.497 29.3387 208.497 33.3453C208.497 37.0905 209.632 40.1389 211.814 42.36C213.996 44.5374 216.964 45.6697 220.674 45.6697C224.558 45.6697 227.657 44.4939 229.882 42.1422C232.152 39.7905 233.243 36.655 233.243 32.7791C233.243 28.9468 232.196 25.8983 230.057 23.6773C228.006 21.4563 224.994 20.3676 221.241 20.3676ZM225.736 38.9196C224.689 40.2696 223.03 40.9228 220.979 40.9228C218.884 40.9228 217.269 40.2696 216.091 38.8325C214.913 37.4824 214.345 35.5227 214.345 33.0404C214.345 30.471 214.956 28.5113 216.091 27.1177C217.269 25.7241 218.884 25.0273 220.936 25.0273C222.9 25.0273 224.514 25.6806 225.649 27.0306C226.784 28.3806 227.395 30.3404 227.395 32.9098C227.395 35.5227 226.827 37.5695 225.736 38.9196ZM263.575 25.5499V20.8902H257.858V13.7481L257.683 13.7916L252.272 15.403L252.141 15.4465V20.8902H243.587V17.8417C243.587 16.4481 243.936 15.3594 244.547 14.6626C245.158 13.9658 246.074 13.6174 247.209 13.6174C247.995 13.6174 248.824 13.7916 249.74 14.1836L249.959 14.3142V9.39315L249.828 9.3496C249.042 9.08831 247.995 8.91411 246.642 8.91411C244.939 8.91411 243.456 9.30605 242.103 9.95929C240.75 10.6996 239.746 11.7013 239.004 13.0513C238.262 14.3578 237.869 15.8384 237.869 17.5369V20.8902H233.898V25.5064H237.869V45.0165H243.587V25.5499H252.141V37.9615C252.141 43.0567 254.541 45.6262 259.342 45.6262C260.127 45.6262 260.957 45.4955 261.742 45.3649C262.572 45.1907 263.183 44.9729 263.532 44.7987L263.575 44.7552V40.0954L263.357 40.2696C263.008 40.4873 262.702 40.6615 262.179 40.7922C261.742 40.9228 261.349 40.9664 261.044 40.9664C259.909 40.9664 259.124 40.7051 258.556 40.0518C258.033 39.4422 257.771 38.4405 257.771 36.9598V25.5499H263.575Z" fill="#010208" fill-opacity="0.55"/>
<path d="M0.0119629 0.160721H26.7655V26.8564H0.0119629V0.160721Z" fill="#010208" fill-opacity="0.55"/>
<path d="M29.5583 0.160706H56.3119V26.8564H29.5583V0.160706Z" fill="#010208" fill-opacity="0.55"/>
<path d="M0.0119629 29.6436H26.7655V56.3393H0.0119629V29.6436Z" fill="#010208" fill-opacity="0.55"/>
<path d="M29.5583 29.6436H56.3119V56.3393H29.5583V29.6436Z" fill="#010208" fill-opacity="0.55"/>
</g>
<defs>
<clipPath id="clip0_77_283">
<rect width="263.607" height="56.1786" fill="white" transform="translate(0.0119629 0.160721)"/>
</clipPath>
</defs>
</svg>
